<svg version="1.2" xmlns="http://www.w3.org/2000/svg" viewBox="0 0 52 52" width="52" height="52">
	<title>Surface-svg</title>
	<style>
		.s0 { fill: #e5e5e5 } 
		.s1 { fill: #ffffff } 
		.s2 { fill: #5ece7b } 
	</style>
	<path id="Layer" class="s0" d="m0 0h52v52h-52z"/>
	<path id="Layer" class="s1" d="m-403-1198h1440v1513h-1440z"/>
	<g id="Layer">
		<g id="Layer">
			<g id="Layer">
				<circle id="Layer" class="s2" cx="26" cy="26" r="26"/>
				<path id="Layer" fill-rule="evenodd" class="s1" d="m37.5 19.8c0.5 0.6 0.6 1.3 0.4 2l-1.9 7.4c-0.2 1.1-1.2 1.8-2.3 1.8h-10.1c-1.1 0-2.1-0.7-2.3-1.8l-3.1-11.7c-0.1-0.4-0.5-0.6-0.8-0.6h-2.6c-0.4 0-0.8-0.3-0.8-0.7 0-0.5 0.4-0.8 0.8-0.8h2.6c1.1 0 2 0.7 2.3 1.8l0.5 1.8h15.4c0.7 0 1.4 0.3 1.9 0.8zm-1.1 1.7c0.1-0.3 0-0.5-0.2-0.7-0.1-0.2-0.4-0.3-0.6-0.3h-15l2.2 8.4c0.1 0.4 0.4 0.6 0.8 0.6h10.1c0.4 0 0.7-0.2 0.8-0.6l1.9-7.4z"/>
				<path id="Layer" fill-rule="evenodd" class="s1" d="m24.1 32c1.5 0 2.7 1.1 2.7 2.5 0 1.4-1.2 2.5-2.7 2.5-1.4 0-2.6-1.1-2.6-2.5 0-1.4 1.2-2.5 2.6-2.5zm1.1 2.5c0-0.6-0.5-1-1.1-1-0.5 0-1 0.4-1 1 0 0.5 0.5 1 1 1 0.6 0 1.1-0.5 1.1-1z"/>
				<path id="Layer" fill-rule="evenodd" class="s1" d="m35.5 34.5c0 1.4-1.2 2.5-2.7 2.5-1.4 0-2.6-1.1-2.6-2.5 0-1.4 1.2-2.5 2.6-2.5 1.5 0 2.6 1.1 2.7 2.5zm-1.6 0c0-0.6-0.5-1-1.1-1-0.6 0-1 0.4-1 1 0 0.5 0.4 1 1 1 0.6 0 1.1-0.5 1.1-1z"/>
			</g>
		</g>
	</g>
</svg>